<svg width="96" height="97" viewBox="0 0 96 97" fill="none" xmlns="http://www.w3.org/2000/svg">
<path d="M12 16.0244H84C85.0609 16.0244 86.0783 16.4458 86.8284 17.196C87.5786 17.9461 88 18.9635 88 20.0244V76.0244C88 77.0853 87.5786 78.1027 86.8284 78.8528C86.0783 79.603 85.0609 80.0244 84 80.0244H12C10.9391 80.0244 9.92172 79.603 9.17157 78.8528C8.42143 78.1027 8 77.0853 8 76.0244V20.0244C8 18.9635 8.42143 17.9461 9.17157 17.196C9.92172 16.4458 10.9391 16.0244 12 16.0244ZM80 48.0244H16V72.0244H80V48.0244ZM80 32.0244V24.0244H16V32.0244H80Z" fill="#1264A9"/>
</svg>
