<svg width="96" height="97" viewBox="0 0 96 97" fill="none" xmlns="http://www.w3.org/2000/svg">
<path d="M12 25.0247C12 24.4724 12.4477 24.0247 13 24.0247H83C83.5523 24.0247 84 24.4724 84 25.0247V71.0247C84 71.5769 83.5523 72.0247 83 72.0247H13C12.4477 72.0247 12 71.5769 12 71.0247V25.0247ZM48 36.0247C51.1826 36.0247 54.2348 37.2889 56.4853 39.5394C58.7357 41.7898 60 44.8421 60 48.0247C60 51.2073 58.7357 54.2595 56.4853 56.5099C54.2348 58.7604 51.1826 60.0247 48 60.0247C44.8174 60.0247 41.7652 58.7604 39.5147 56.5099C37.2643 54.2595 36 51.2073 36 48.0247C36 44.8421 37.2643 41.7898 39.5147 39.5394C41.7652 37.2889 44.8174 36.0247 48 36.0247ZM28 32.0247C28 34.1464 27.1571 36.1812 25.6569 37.6815C24.1566 39.1818 22.1217 40.0247 20 40.0247V56.0247C22.1217 56.0247 24.1566 56.8675 25.6569 58.3678C27.1571 59.8681 28 61.9029 28 64.0247H68C68 61.9029 68.8429 59.8681 70.3431 58.3678C71.8434 56.8675 73.8783 56.0247 76 56.0247V40.0247C73.8783 40.0247 71.8434 39.1818 70.3431 37.6815C68.8429 36.1812 68 34.1464 68 32.0247H28Z" fill="#0D9700"/>
</svg>
