<svg width="50" height="49" viewBox="0 0 50 49" fill="none" xmlns="http://www.w3.org/2000/svg">
<path fill-rule="evenodd" clip-rule="evenodd" d="M49.0147 25.0573C49.0147 23.32 48.8588 21.6495 48.5692 20.0459H25.4947V29.5229H38.6802C38.1122 32.5854 36.3861 35.1802 33.7913 36.9175V43.0648H41.7092C46.342 38.7995 49.0147 32.5186 49.0147 25.0573Z" fill="#4285F4"/>
<path fill-rule="evenodd" clip-rule="evenodd" d="M25.4948 49.0003C32.1098 49.0003 37.6557 46.8064 41.7094 43.0646L33.7914 36.9173C31.5975 38.3873 28.7912 39.256 25.4948 39.256C19.1137 39.256 13.7125 34.9462 11.7859 29.1553H3.60071V35.503C7.63207 43.5101 15.9175 49.0003 25.4948 49.0003Z" fill="#34A853"/>
<path fill-rule="evenodd" clip-rule="evenodd" d="M11.7858 29.1548C11.2958 27.6848 11.0174 26.1146 11.0174 24.4998C11.0174 22.885 11.2958 21.3148 11.7858 19.8448V13.4971H3.6006C1.94128 16.8046 0.99469 20.5464 0.99469 24.4998C0.99469 28.4532 1.94128 32.195 3.6006 35.5025L11.7858 29.1548Z" fill="#FBBC05"/>
<path fill-rule="evenodd" clip-rule="evenodd" d="M25.4948 9.74432C29.0919 9.74432 32.3214 10.9805 34.8605 13.4082L41.8875 6.38114C37.6446 2.42773 32.0987 0 25.4948 0C15.9175 0 7.63207 5.49023 3.60071 13.4973L11.7859 19.845C13.7125 14.0541 19.1137 9.74432 25.4948 9.74432Z" fill="#EA4335"/>
</svg>
