<svg width="161" height="61" viewBox="0 0 161 61" fill="none" xmlns="http://www.w3.org/2000/svg">
<g clip-path="url(#clip0_1002_1588)">
<path d="M62.2786 55.4209H32.0311V60.0001H57.5255C58.786 59.9998 59.9947 59.5172 60.8861 58.6585C61.7774 57.7998 62.2782 56.6353 62.2786 55.4209Z" fill="#1264A9"/>
<path d="M21.9221 39.9131V41.9867C22.2407 41.9546 22.5608 41.9381 22.8811 41.9375C25.3057 41.9401 27.6303 42.8691 29.3447 44.5208C31.0592 46.1726 32.0235 48.412 32.0261 50.7479V53.7023H62.2786V30.8591H31.3249C28.8325 30.8607 26.4425 31.815 24.6797 33.5124C22.9168 35.2099 21.925 37.5119 21.9221 39.9131Z" fill="#1264A9"/>
<path d="M22.8861 43.656C20.9346 43.6582 19.0637 44.4062 17.6839 45.7357C16.3041 47.0653 15.528 48.8679 15.5261 50.748V60H30.2475V50.748C30.2455 48.8677 29.4693 47.0649 28.0892 45.7353C26.7091 44.4057 24.8379 43.6579 22.8861 43.656Z" fill="#1264A9"/>
<path d="M36.0904 17.0783C33.2605 13.3799 28.252 11.0591 22.8874 11.0591C17.5227 11.0591 12.5143 13.3799 9.68433 17.0783H36.0904Z" fill="#1264A9"/>
<path d="M19.8046 19.2601C19.8208 20.0366 20.1524 20.7761 20.7281 21.3198C21.3039 21.8635 22.078 22.168 22.8842 22.168C23.6905 22.168 24.4645 21.8635 25.0403 21.3198C25.6161 20.7761 25.9477 20.0366 25.9639 19.2601C25.9636 19.1045 25.9503 18.9492 25.9241 18.7957H19.8469C19.8198 18.9491 19.8057 19.1044 19.8046 19.2601Z" fill="#1264A9"/>
<path d="M13.7424 50.748C13.7461 48.8747 14.3683 47.051 15.519 45.5409C16.6697 44.0308 18.2893 42.9126 20.1434 42.348V39.9132C20.1434 37.0562 21.3214 34.3162 23.4184 32.296C25.5153 30.2757 28.3593 29.1408 31.3249 29.1408H62.2785V4.5792C62.2782 3.36482 61.7773 2.20027 60.886 1.34157C59.9947 0.48287 58.7859 0.000318109 57.5254 0L23.7779 0V9.3672C30.1092 9.6324 35.6993 12.6984 38.5043 17.5164C38.5807 17.647 38.6203 17.7947 38.619 17.9447C38.6177 18.0946 38.5757 18.2416 38.497 18.371C38.4184 18.5005 38.3059 18.6078 38.1708 18.6823C38.0358 18.7567 37.8828 18.7958 37.7271 18.7956H27.7227C27.7395 18.9499 27.7482 19.1049 27.7488 19.26C27.7488 20.5025 27.2365 21.6941 26.3246 22.5727C25.4126 23.4512 24.1758 23.9448 22.8861 23.9448C21.5965 23.9448 20.3596 23.4512 19.4477 22.5727C18.5357 21.6941 18.0234 20.5025 18.0234 19.26C18.0244 19.1049 18.0336 18.9499 18.0508 18.7956H8.04639C7.89127 18.7955 7.73888 18.7563 7.6043 18.682C7.46973 18.6077 7.35762 18.5008 7.2791 18.372C7.20057 18.2431 7.15835 18.0967 7.1566 17.9473C7.15486 17.7978 7.19366 17.6505 7.26915 17.52C10.0742 12.702 15.6643 9.636 21.9955 9.3708V0H4.7531C3.4926 0.000318109 2.28382 0.48287 1.39252 1.34157C0.501208 2.20027 0.00033019 3.36482 0 4.5792L0 55.4208C0.00033019 56.6352 0.501208 57.7997 1.39252 58.6584C2.28382 59.5171 3.4926 59.9997 4.7531 60H13.7424V50.748Z" fill="#1264A9"/>
</g>
<path d="M87.3585 21.0073H77.5662L77.5139 15.2347H85.4523C86.8798 15.2347 88.0201 15.0841 88.8731 14.7829C89.7261 14.465 90.3441 14.0049 90.7271 13.4025C91.1275 12.8002 91.3277 12.0472 91.3277 11.1437C91.3277 10.1063 91.1275 9.26966 90.7271 8.63383C90.3267 7.99801 89.6913 7.53787 88.8208 7.25343C87.9678 6.95225 86.8624 6.80165 85.5045 6.80165H81.0131V36.5432H71.8474V0H85.5045C87.8547 0 89.9524 0.209153 91.7977 0.627459C93.643 1.02903 95.2098 1.64813 96.4981 2.48474C97.8037 3.32135 98.796 4.37548 99.4749 5.64713C100.154 6.90205 100.493 8.38285 100.493 10.0895C100.493 11.5787 100.163 12.9759 99.5011 14.281C98.8395 15.5861 97.7341 16.6486 96.1847 17.4685C94.6527 18.2716 92.555 18.6899 89.8915 18.7234L87.3585 21.0073ZM86.9929 36.5432H75.3466L78.4801 29.7667H86.9929C88.2464 29.7667 89.2474 29.5826 89.9959 29.2145C90.7619 28.8296 91.3103 28.3277 91.6411 27.7086C91.9892 27.0728 92.1633 26.37 92.1633 25.6003C92.1633 24.6633 91.9979 23.8518 91.6672 23.1658C91.3538 22.4798 90.849 21.9527 90.1526 21.5846C89.4563 21.1997 88.5249 21.0073 87.3585 21.0073H79.6552L79.7074 15.2347H88.9253L91.0666 17.5438C93.6082 17.4434 95.6189 17.7864 97.0987 18.5728C98.5958 19.3592 99.6664 20.3966 100.311 21.685C100.955 22.9734 101.277 24.3203 101.277 25.7258C101.277 28.1185 100.737 30.118 99.6577 31.7243C98.5958 33.3306 97.0029 34.5353 94.8791 35.3385C92.7552 36.1416 90.1265 36.5432 86.9929 36.5432Z" fill="#212427"/>
<path d="M115.534 0V36.5432H106.369V0H115.534ZM138.227 0L123.499 18.5226L114.882 27.5831L113.21 19.5014L118.72 11.4699L126.92 0H138.227ZM127.39 36.5432L117.571 20.0787L124.7 15.0339L138.227 36.5432H127.39Z" fill="#212427"/>
<path d="M118.185 41C117.654 41 117.173 41.1631 116.84 41.5589C116.547 41.9083 116.411 42.3288 116.411 42.7892C116.411 43.2395 116.55 43.6502 116.84 43.9954L116.846 44.0016C117.18 44.3868 117.66 44.5423 118.185 44.5423C118.71 44.5423 119.19 44.3869 119.525 44.002C119.826 43.6572 119.972 43.2443 119.972 42.7892C119.972 42.3254 119.83 41.9037 119.527 41.5552C119.195 41.1621 118.715 41 118.185 41Z" fill="#1264A9"/>
<path d="M82.4007 41.241H71.8474V59.7837H75.1952V52.0365H81.3588V49.1328H75.1952V44.1446H82.4007V41.241Z" fill="#1264A9"/>
<path d="M126.211 42.5784H122.951V45.7471H120.88V48.458H122.951V56.0426C122.951 56.9486 123.081 57.7214 123.377 58.3279L123.379 58.3306C123.665 58.9077 124.062 59.3593 124.589 59.6377C125.077 59.8959 125.607 60.0247 126.169 60.0247C126.573 60.0247 126.931 59.9959 127.232 59.9292C127.495 59.8786 127.725 59.8201 127.913 59.75L128.242 59.6271L128.262 56.742L127.557 56.996C127.528 57.0065 127.437 57.0314 127.258 57.0707C127.103 57.0973 126.97 57.109 126.86 57.109C126.725 57.109 126.607 57.0851 126.498 57.0407C126.471 57.0296 126.404 56.9896 126.323 56.8374C126.263 56.7099 126.211 56.4652 126.211 56.0547V48.458H128.257V45.7471H126.211V42.5784Z" fill="#1264A9"/>
<path d="M99.2415 45.7471L99.2583 46.2053L99.4526 46.0593C99.9869 45.6848 100.616 45.5062 101.314 45.5062C101.494 45.5062 101.692 45.5322 101.901 45.5752C102.008 45.5926 102.108 45.6128 102.196 45.6373C102.276 45.6598 102.392 45.6975 102.494 45.7675L102.71 45.9159L102.728 48.8739L102.091 48.7349C101.928 48.6994 101.79 48.6803 101.674 48.6742L101.659 48.6733L101.643 48.6715C101.526 48.6583 101.38 48.6508 101.201 48.6508C100.854 48.6508 100.572 48.7168 100.34 48.8333C100.102 48.9574 99.8909 49.1326 99.7075 49.3672C99.5643 49.5505 99.4392 49.7668 99.3349 50.0197V59.7837H96.075V45.7471H99.2415Z" fill="#1264A9"/>
<path d="M107.02 45.7471L107.053 46.4633C107.261 46.304 107.482 46.1624 107.715 46.0391C108.374 45.6819 109.102 45.5062 109.888 45.5062C110.497 45.5062 111.065 45.6035 111.585 45.8065C112.124 46.008 112.58 46.3343 112.952 46.7755C113.326 47.2198 113.596 47.7771 113.777 48.4273C113.97 49.079 114.06 49.8538 114.06 50.7413V59.7837H110.8V50.7172C110.8 50.0645 110.723 49.585 110.594 49.2537L110.59 49.2427C110.47 48.9084 110.301 48.7143 110.109 48.6031L110.102 48.5991L110.096 48.5949C109.891 48.4677 109.603 48.3858 109.197 48.3858C108.865 48.3858 108.556 48.4732 108.26 48.6559C107.952 48.8463 107.671 49.1149 107.421 49.4742C107.33 49.6095 107.246 49.7531 107.168 49.9054V59.7837H103.908V45.7471H107.02Z" fill="#1264A9"/>
<path d="M145.462 45.7471L145.479 46.2053C145.542 46.1543 145.607 46.1057 145.673 46.0593C146.208 45.6848 146.836 45.5062 147.535 45.5062C147.715 45.5062 147.913 45.5322 148.122 45.5752C148.228 45.5926 148.328 45.6128 148.416 45.6373C148.497 45.6598 148.612 45.6975 148.714 45.7675L148.931 45.9159L148.949 48.8739L148.311 48.7349C148.149 48.6994 148.011 48.6803 147.895 48.6742L147.879 48.6733L147.863 48.6715C147.747 48.6583 147.6 48.6508 147.422 48.6508C147.074 48.6508 146.792 48.7168 146.56 48.8334C146.322 48.9574 146.112 49.1326 145.928 49.3672C145.785 49.5505 145.66 49.7668 145.556 50.0197V59.7837H142.296V45.7471H145.462Z" fill="#1264A9"/>
<path fill-rule="evenodd" clip-rule="evenodd" d="M152.894 55.3842C152.786 54.9734 152.723 54.4777 152.713 53.892H160.28V52.151C160.28 51.1277 160.186 50.2097 159.991 49.4017C159.804 48.5902 159.505 47.8849 159.083 47.2992C158.653 46.7031 158.09 46.2511 157.404 45.9489C156.717 45.6468 155.911 45.5062 155.004 45.5062C154.304 45.5062 153.622 45.6301 152.961 45.8762C152.28 46.1221 151.675 46.5206 151.149 47.0605C150.61 47.606 150.196 48.3116 149.894 49.1566L149.892 49.1609C149.593 50.0222 149.451 51.0512 149.451 52.2353V53.7052C149.451 54.7384 149.577 55.6557 149.84 56.448C150.101 57.2364 150.487 57.9097 151.007 58.4536L151.009 58.4566C151.527 58.9892 152.152 59.3852 152.878 59.6442C153.597 59.9008 154.392 60.0247 155.255 60.0247C156.081 60.0247 156.815 59.928 157.444 59.7207L157.448 59.7193C158.06 59.5118 158.592 59.2421 159.031 58.9028L159.032 58.902C159.456 58.5736 159.809 58.2238 160.084 57.8502L160.317 57.5349L158.483 55.4348L158.088 55.9112C157.767 56.2986 157.392 56.6158 156.961 56.8655C156.577 57.0807 156.061 57.2054 155.38 57.2054C154.926 57.2054 154.538 57.1379 154.209 57.0137C153.898 56.8856 153.634 56.6961 153.412 56.4399C153.198 56.1749 153.022 55.8279 152.894 55.3842ZM157.007 51.0726H152.76C152.791 50.735 152.838 50.438 152.898 50.1804C153.031 49.6483 153.202 49.2727 153.389 49.024C153.591 48.76 153.812 48.5974 154.049 48.5084L154.056 48.5061C154.34 48.3954 154.655 48.3376 155.004 48.3376C155.57 48.3376 155.929 48.4679 156.155 48.6592L156.161 48.6636C156.42 48.8767 156.623 49.1859 156.751 49.6241L156.753 49.631C156.881 50.0433 156.967 50.5226 157.007 51.0726Z" fill="#1264A9"/>
<path d="M86.857 45.7471H83.6097V54.6571C83.6097 55.5546 83.7003 56.3445 83.8917 57.0181L83.8934 57.0239C84.0915 57.6892 84.3741 58.2572 84.7558 58.7082L84.76 58.7129C85.1441 59.1553 85.603 59.4902 86.1353 59.7078L86.1385 59.7091C86.6694 59.9222 87.2488 60.0247 87.8695 60.0247C88.7608 60.0247 89.5499 59.8649 90.2133 59.5185L90.2184 59.5158C90.3603 59.4396 90.4962 59.357 90.626 59.2679L90.6453 59.7837H93.7738V45.7471H90.5139V55.781C90.3414 56.1614 90.103 56.4648 89.8026 56.7022C89.4513 56.9723 88.9503 57.1331 88.2461 57.1331C88.0814 57.1331 87.9174 57.1024 87.7509 57.0372C87.6206 56.9863 87.484 56.892 87.3453 56.7296C87.2177 56.5725 87.0976 56.3391 87.0017 56.0066C86.9094 55.6788 86.857 55.2411 86.857 54.6812V45.7471Z" fill="#1264A9"/>
<path d="M119.784 45.7471H116.537V59.7837H119.784V45.7471Z" fill="#1264A9"/>
<path d="M133.078 45.7471H129.83V54.6571C129.83 55.5546 129.921 56.3445 130.112 57.0181L130.114 57.0239C130.312 57.6892 130.595 58.2572 130.977 58.7082L130.981 58.7129C131.365 59.1553 131.824 59.4902 132.356 59.7078L132.359 59.7091C132.89 59.9222 133.47 60.0247 134.09 60.0247C134.982 60.0247 135.771 59.8649 136.434 59.5185L136.439 59.5158C136.581 59.4396 136.717 59.357 136.847 59.2679L136.866 59.7837H139.994V45.7471H136.735V55.781C136.562 56.1614 136.324 56.4648 136.023 56.7022C135.672 56.9723 135.171 57.1331 134.467 57.1331C134.302 57.1331 134.138 57.1024 133.972 57.0372C133.841 56.9863 133.705 56.892 133.566 56.7297C133.438 56.5726 133.318 56.3392 133.222 56.0067C133.13 55.6789 133.078 55.2412 133.078 54.6812V45.7471Z" fill="#1264A9"/>
<defs>
<clipPath id="clip0_1002_1588">
<rect width="62.2785" height="60" fill="white"/>
</clipPath>
</defs>
</svg>
