<svg width="96" height="97" viewBox="0 0 96 97" fill="none" xmlns="http://www.w3.org/2000/svg">
<g clip-path="url(#clip0_1454_1192)">
<path d="M33.3359 81.5838L34.5837 73.6577L31.8041 73.5933H18.5312L27.7552 15.1072C27.7839 14.9306 27.8769 14.766 28.0129 14.6491C28.1489 14.5322 28.3231 14.4678 28.5044 14.4678H50.8844C58.3141 14.4678 63.4415 16.0139 66.1185 19.0654C67.3735 20.497 68.1728 21.993 68.5593 23.6393C68.9649 25.3667 68.972 27.4305 68.576 29.9476L68.5474 30.1314V31.7442L69.8023 32.4552C70.8593 33.0159 71.6992 33.6578 72.3434 34.3926C73.417 35.6166 74.1113 37.1722 74.4048 39.0165C74.7078 40.9133 74.6076 43.1704 74.1113 45.7257C73.5387 48.6652 72.613 51.2253 71.3627 53.3201C70.2127 55.2504 68.7478 56.8513 67.0084 58.092C65.3478 59.2706 63.3747 60.1654 61.1438 60.738C58.9822 61.3011 56.5175 61.585 53.8143 61.585H52.0726C50.8271 61.585 49.6174 62.0335 48.6678 62.8376C47.7159 63.6583 47.086 64.7797 46.8927 66.0061L46.7615 66.7195L44.5569 80.6891L44.4567 81.202C44.4304 81.3643 44.3851 81.4454 44.3183 81.5003C44.2587 81.5504 44.1728 81.5838 44.0893 81.5838H33.3359Z" fill="#AD2070"/>
<path d="M70.9905 30.3176C70.9237 30.7447 70.8474 31.1813 70.7615 31.6299C67.8101 46.7829 57.7129 52.0176 44.8169 52.0176H38.2509C36.6738 52.0176 35.3448 53.1628 35.0991 54.7185L31.7373 76.0391L30.7853 82.0826C30.6255 83.1038 31.4128 84.0248 32.4435 84.0248H44.0892C45.4683 84.0248 46.6398 83.0227 46.8569 81.6627L46.9714 81.071L49.1641 67.1563L49.3049 66.3928C49.5196 65.028 50.6935 64.026 52.0725 64.026H53.8143C65.0973 64.026 73.93 59.445 76.5115 46.1888C77.59 40.6511 77.0317 36.0271 74.1781 32.7751C73.3144 31.7945 72.2431 30.9809 70.9905 30.3176Z" fill="#179BD7"/>
<path d="M67.9037 29.0865C67.4527 28.9552 66.9875 28.8359 66.5103 28.7286C66.0307 28.6236 65.5392 28.5305 65.0334 28.4494C63.263 28.1631 61.3233 28.0271 59.2451 28.0271H41.7038C41.272 28.0271 40.8616 28.1249 40.4942 28.3015C39.6854 28.6904 39.0841 29.4563 38.9386 30.3939L35.207 54.0289L35.0996 54.7184C35.3454 53.1628 36.6743 52.0176 38.2514 52.0176H44.8175C57.7134 52.0176 67.8106 46.7805 70.762 31.6298C70.8503 31.1813 70.9242 30.7447 70.991 30.3176C70.2443 29.9215 69.4354 29.5827 68.5646 29.294C68.3498 29.2224 68.1279 29.1533 67.9037 29.0865Z" fill="#222D65"/>
<path d="M38.9382 30.3939C39.0838 29.4562 39.685 28.6903 40.4939 28.3038C40.8637 28.1273 41.2717 28.0294 41.7035 28.0294H59.2448C61.323 28.0294 63.2627 28.1654 65.0331 28.4517C65.5389 28.5329 66.0304 28.6259 66.51 28.7309C66.9871 28.8383 67.4524 28.9576 67.9033 29.0888C68.1276 29.1556 68.3495 29.2248 68.5666 29.294C69.4375 29.5827 70.2463 29.9239 70.9931 30.3175C71.8711 24.7178 70.986 20.9051 67.9582 17.4526C64.6203 13.6519 58.5959 12.0247 50.8869 12.0247H28.507C26.9323 12.0247 25.589 13.1699 25.3456 14.7279L16.0238 73.8153C15.8401 74.9844 16.742 76.039 17.9206 76.039H31.7375L35.2067 54.0288L38.9382 30.3939Z" fill="#253B80"/>
</g>
<defs>
<clipPath id="clip0_1454_1192">
<rect width="61.0232" height="72" fill="white" transform="translate(16 12.0247)"/>
</clipPath>
</defs>
</svg>
